<mxfile host="app.diagrams.net" modified="2020-10-21T10:43:05.211Z" agent="5.0 (Windows NT 10.0; Win64; x64) AppleWebKit/537.36 (KHTML, like Gecko) Chrome/86.0.4240.75 Safari/537.36" etag="whvZ4JBJFPg2IoQ3ZTmz" version="13.8.1" type="github">
  <diagram id="C5RBs43oDa-KdzZeNtuy" name="Page-1">
    <mxGraphModel dx="1185" dy="635" grid="1" gridSize="10" guides="1" tooltips="1" connect="1" arrows="1" fold="1" page="1" pageScale="1" pageWidth="827" pageHeight="1169" math="0" shadow="0">
      <root>
        <mxCell id="WIyWlLk6GJQsqaUBKTNV-0" />
        <mxCell id="WIyWlLk6GJQsqaUBKTNV-1" parent="WIyWlLk6GJQsqaUBKTNV-0" />
        <mxCell id="42xPKJcxn0MM1JiC0Tld-1" value="Hurtownia" style="swimlane;fontStyle=1;align=center;verticalAlign=top;childLayout=stackLayout;horizontal=1;startSize=30;horizontalStack=0;resizeParent=1;resizeParentMax=0;resizeLast=0;collapsible=1;marginBottom=0;" vertex="1" parent="WIyWlLk6GJQsqaUBKTNV-1">
          <mxGeometry x="30" y="40" width="160" height="78" as="geometry" />
        </mxCell>
        <mxCell id="42xPKJcxn0MM1JiC0Tld-2" value="nazwa:&#xa;adres:" style="text;strokeColor=none;fillColor=none;align=left;verticalAlign=top;spacingLeft=4;spacingRight=4;overflow=hidden;rotatable=0;points=[[0,0.5],[1,0.5]];portConstraint=eastwest;fontColor=#FF6666;" vertex="1" parent="42xPKJcxn0MM1JiC0Tld-1">
          <mxGeometry y="30" width="160" height="40" as="geometry" />
        </mxCell>
        <mxCell id="42xPKJcxn0MM1JiC0Tld-3" value="" style="line;strokeWidth=1;fillColor=none;align=left;verticalAlign=middle;spacingTop=-1;spacingLeft=3;spacingRight=3;rotatable=0;labelPosition=right;points=[];portConstraint=eastwest;" vertex="1" parent="42xPKJcxn0MM1JiC0Tld-1">
          <mxGeometry y="70" width="160" height="8" as="geometry" />
        </mxCell>
        <mxCell id="42xPKJcxn0MM1JiC0Tld-38" value="Należność" style="swimlane;fontStyle=1;align=center;verticalAlign=top;childLayout=stackLayout;horizontal=1;startSize=26;horizontalStack=0;resizeParent=1;resizeParentMax=0;resizeLast=0;collapsible=1;marginBottom=0;" vertex="1" parent="WIyWlLk6GJQsqaUBKTNV-1">
          <mxGeometry x="620" y="160" width="160" height="60" as="geometry" />
        </mxCell>
        <mxCell id="42xPKJcxn0MM1JiC0Tld-39" value="terminPłatności:" style="text;strokeColor=none;fillColor=none;align=left;verticalAlign=top;spacingLeft=4;spacingRight=4;overflow=hidden;rotatable=0;points=[[0,0.5],[1,0.5]];portConstraint=eastwest;fontColor=#FF6666;" vertex="1" parent="42xPKJcxn0MM1JiC0Tld-38">
          <mxGeometry y="26" width="160" height="26" as="geometry" />
        </mxCell>
        <mxCell id="42xPKJcxn0MM1JiC0Tld-40" value="" style="line;strokeWidth=1;fillColor=none;align=left;verticalAlign=middle;spacingTop=-1;spacingLeft=3;spacingRight=3;rotatable=0;labelPosition=right;points=[];portConstraint=eastwest;" vertex="1" parent="42xPKJcxn0MM1JiC0Tld-38">
          <mxGeometry y="52" width="160" height="8" as="geometry" />
        </mxCell>
        <mxCell id="42xPKJcxn0MM1JiC0Tld-34" value="Wpływ" style="swimlane;fontStyle=1;align=center;verticalAlign=top;childLayout=stackLayout;horizontal=1;startSize=26;horizontalStack=0;resizeParent=1;resizeParentMax=0;resizeLast=0;collapsible=1;marginBottom=0;" vertex="1" parent="WIyWlLk6GJQsqaUBKTNV-1">
          <mxGeometry x="620" y="320" width="160" height="60" as="geometry" />
        </mxCell>
        <mxCell id="42xPKJcxn0MM1JiC0Tld-36" value="" style="line;strokeWidth=1;fillColor=none;align=left;verticalAlign=middle;spacingTop=-1;spacingLeft=3;spacingRight=3;rotatable=0;labelPosition=right;points=[];portConstraint=eastwest;" vertex="1" parent="42xPKJcxn0MM1JiC0Tld-34">
          <mxGeometry y="26" width="160" height="8" as="geometry" />
        </mxCell>
        <mxCell id="42xPKJcxn0MM1JiC0Tld-37" value="zaksięguj()" style="text;strokeColor=none;fillColor=none;align=left;verticalAlign=top;spacingLeft=4;spacingRight=4;overflow=hidden;rotatable=0;points=[[0,0.5],[1,0.5]];portConstraint=eastwest;fontColor=#00FF00;" vertex="1" parent="42xPKJcxn0MM1JiC0Tld-34">
          <mxGeometry y="34" width="160" height="26" as="geometry" />
        </mxCell>
        <mxCell id="42xPKJcxn0MM1JiC0Tld-60" value="" style="endArrow=none;dashed=1;html=1;" edge="1" parent="WIyWlLk6GJQsqaUBKTNV-1">
          <mxGeometry width="50" height="50" relative="1" as="geometry">
            <mxPoint x="590" y="368" as="sourcePoint" />
            <mxPoint x="590" y="118" as="targetPoint" />
          </mxGeometry>
        </mxCell>
        <mxCell id="42xPKJcxn0MM1JiC0Tld-84" value="termin" style="edgeLabel;html=1;align=center;verticalAlign=middle;resizable=0;points=[];fontColor=#000000;" vertex="1" connectable="0" parent="42xPKJcxn0MM1JiC0Tld-60">
          <mxGeometry x="0.72" relative="1" as="geometry">
            <mxPoint x="-30" y="-3" as="offset" />
          </mxGeometry>
        </mxCell>
        <mxCell id="42xPKJcxn0MM1JiC0Tld-63" value="" style="endArrow=block;endSize=16;endFill=0;html=1;entryX=0.475;entryY=1;entryDx=0;entryDy=0;entryPerimeter=0;exitX=0.5;exitY=0;exitDx=0;exitDy=0;" edge="1" parent="WIyWlLk6GJQsqaUBKTNV-1" source="42xPKJcxn0MM1JiC0Tld-22" target="42xPKJcxn0MM1JiC0Tld-19">
          <mxGeometry width="160" relative="1" as="geometry">
            <mxPoint x="150" y="469" as="sourcePoint" />
            <mxPoint x="340" y="310" as="targetPoint" />
          </mxGeometry>
        </mxCell>
        <mxCell id="42xPKJcxn0MM1JiC0Tld-22" value="Gotówka" style="swimlane;fontStyle=1;align=center;verticalAlign=top;childLayout=stackLayout;horizontal=1;startSize=26;horizontalStack=0;resizeParent=1;resizeParentMax=0;resizeLast=0;collapsible=1;marginBottom=0;" vertex="1" parent="WIyWlLk6GJQsqaUBKTNV-1">
          <mxGeometry x="70" y="470" width="160" height="60" as="geometry" />
        </mxCell>
        <mxCell id="42xPKJcxn0MM1JiC0Tld-23" value="kwotaPrzekazana:" style="text;strokeColor=none;fillColor=none;align=left;verticalAlign=top;spacingLeft=4;spacingRight=4;overflow=hidden;rotatable=0;points=[[0,0.5],[1,0.5]];portConstraint=eastwest;fontColor=#FF6666;" vertex="1" parent="42xPKJcxn0MM1JiC0Tld-22">
          <mxGeometry y="26" width="160" height="26" as="geometry" />
        </mxCell>
        <mxCell id="42xPKJcxn0MM1JiC0Tld-24" value="" style="line;strokeWidth=1;fillColor=none;align=left;verticalAlign=middle;spacingTop=-1;spacingLeft=3;spacingRight=3;rotatable=0;labelPosition=right;points=[];portConstraint=eastwest;" vertex="1" parent="42xPKJcxn0MM1JiC0Tld-22">
          <mxGeometry y="52" width="160" height="8" as="geometry" />
        </mxCell>
        <mxCell id="42xPKJcxn0MM1JiC0Tld-30" value="Przelew" style="swimlane;fontStyle=1;align=center;verticalAlign=top;childLayout=stackLayout;horizontal=1;startSize=26;horizontalStack=0;resizeParent=1;resizeParentMax=0;resizeLast=0;collapsible=1;marginBottom=0;" vertex="1" parent="WIyWlLk6GJQsqaUBKTNV-1">
          <mxGeometry x="470" y="470" width="160" height="68" as="geometry" />
        </mxCell>
        <mxCell id="42xPKJcxn0MM1JiC0Tld-31" value="nazwaBanku:&#xa;nrKonta:" style="text;strokeColor=none;fillColor=none;align=left;verticalAlign=top;spacingLeft=4;spacingRight=4;overflow=hidden;rotatable=0;points=[[0,0.5],[1,0.5]];portConstraint=eastwest;fontColor=#FF6666;" vertex="1" parent="42xPKJcxn0MM1JiC0Tld-30">
          <mxGeometry y="26" width="160" height="34" as="geometry" />
        </mxCell>
        <mxCell id="42xPKJcxn0MM1JiC0Tld-32" value="" style="line;strokeWidth=1;fillColor=none;align=left;verticalAlign=middle;spacingTop=-1;spacingLeft=3;spacingRight=3;rotatable=0;labelPosition=right;points=[];portConstraint=eastwest;" vertex="1" parent="42xPKJcxn0MM1JiC0Tld-30">
          <mxGeometry y="60" width="160" height="8" as="geometry" />
        </mxCell>
        <mxCell id="42xPKJcxn0MM1JiC0Tld-64" value="" style="endArrow=block;endSize=16;endFill=0;html=1;entryX=0.75;entryY=1;entryDx=0;entryDy=0;exitX=0.5;exitY=0;exitDx=0;exitDy=0;" edge="1" parent="WIyWlLk6GJQsqaUBKTNV-1" source="42xPKJcxn0MM1JiC0Tld-30" target="42xPKJcxn0MM1JiC0Tld-17">
          <mxGeometry width="160" relative="1" as="geometry">
            <mxPoint x="540" y="469" as="sourcePoint" />
            <mxPoint x="390" y="310" as="targetPoint" />
          </mxGeometry>
        </mxCell>
        <mxCell id="42xPKJcxn0MM1JiC0Tld-65" value="" style="endArrow=block;endSize=16;endFill=0;html=1;exitX=0.5;exitY=0;exitDx=0;exitDy=0;entryX=0.625;entryY=1;entryDx=0;entryDy=0;entryPerimeter=0;" edge="1" parent="WIyWlLk6GJQsqaUBKTNV-1" source="42xPKJcxn0MM1JiC0Tld-26" target="42xPKJcxn0MM1JiC0Tld-19">
          <mxGeometry width="160" relative="1" as="geometry">
            <mxPoint x="360" y="490" as="sourcePoint" />
            <mxPoint x="360" y="310" as="targetPoint" />
          </mxGeometry>
        </mxCell>
        <mxCell id="42xPKJcxn0MM1JiC0Tld-66" value="" style="endArrow=block;endSize=16;endFill=0;html=1;entryX=1;entryY=0.25;entryDx=0;entryDy=0;exitX=0;exitY=0.333;exitDx=0;exitDy=0;exitPerimeter=0;" edge="1" parent="WIyWlLk6GJQsqaUBKTNV-1" source="42xPKJcxn0MM1JiC0Tld-38" target="42xPKJcxn0MM1JiC0Tld-17">
          <mxGeometry width="160" relative="1" as="geometry">
            <mxPoint x="620" y="190" as="sourcePoint" />
            <mxPoint x="490" y="241" as="targetPoint" />
          </mxGeometry>
        </mxCell>
        <mxCell id="42xPKJcxn0MM1JiC0Tld-67" value="" style="endArrow=block;endSize=16;endFill=0;html=1;entryX=1;entryY=0.5;entryDx=0;entryDy=0;exitX=0;exitY=0.25;exitDx=0;exitDy=0;" edge="1" parent="WIyWlLk6GJQsqaUBKTNV-1" source="42xPKJcxn0MM1JiC0Tld-34" target="42xPKJcxn0MM1JiC0Tld-18">
          <mxGeometry width="160" relative="1" as="geometry">
            <mxPoint x="620" y="210.00000000000003" as="sourcePoint" />
            <mxPoint x="430" y="295.02" as="targetPoint" />
          </mxGeometry>
        </mxCell>
        <mxCell id="42xPKJcxn0MM1JiC0Tld-72" value="" style="endArrow=open;endFill=1;endSize=12;html=1;fontColor=#FF6666;exitX=0.5;exitY=1;exitDx=0;exitDy=0;entryX=0.5;entryY=0;entryDx=0;entryDy=0;" edge="1" parent="WIyWlLk6GJQsqaUBKTNV-1" source="42xPKJcxn0MM1JiC0Tld-8" target="42xPKJcxn0MM1JiC0Tld-17">
          <mxGeometry width="160" relative="1" as="geometry">
            <mxPoint x="290" y="180" as="sourcePoint" />
            <mxPoint x="450" y="180" as="targetPoint" />
          </mxGeometry>
        </mxCell>
        <mxCell id="42xPKJcxn0MM1JiC0Tld-77" value="&lt;font color=&quot;#000000&quot;&gt;1..*&lt;/font&gt;" style="edgeLabel;html=1;align=center;verticalAlign=middle;resizable=0;points=[];fontColor=#FF6666;" vertex="1" connectable="0" parent="42xPKJcxn0MM1JiC0Tld-72">
          <mxGeometry x="0.7523" y="2" relative="1" as="geometry">
            <mxPoint x="15.54000000000002" y="-2.08" as="offset" />
          </mxGeometry>
        </mxCell>
        <mxCell id="42xPKJcxn0MM1JiC0Tld-78" value="&lt;font color=&quot;#000000&quot;&gt;podstawa&lt;br&gt;płatności&lt;br&gt;&lt;/font&gt;" style="edgeLabel;html=1;align=center;verticalAlign=middle;resizable=0;points=[];fontColor=#FF6666;" vertex="1" connectable="0" parent="42xPKJcxn0MM1JiC0Tld-72">
          <mxGeometry x="-0.8367" y="-2" relative="1" as="geometry">
            <mxPoint x="-68" y="5" as="offset" />
          </mxGeometry>
        </mxCell>
        <mxCell id="42xPKJcxn0MM1JiC0Tld-79" value="1" style="edgeLabel;html=1;align=center;verticalAlign=middle;resizable=0;points=[];" vertex="1" connectable="0" parent="42xPKJcxn0MM1JiC0Tld-72">
          <mxGeometry x="-0.5918" y="2" relative="1" as="geometry">
            <mxPoint x="8" y="-23" as="offset" />
          </mxGeometry>
        </mxCell>
        <mxCell id="42xPKJcxn0MM1JiC0Tld-73" value="" style="endArrow=none;dashed=1;html=1;" edge="1" parent="WIyWlLk6GJQsqaUBKTNV-1">
          <mxGeometry width="50" height="50" relative="1" as="geometry">
            <mxPoint x="70" y="430" as="sourcePoint" />
            <mxPoint x="620" y="430" as="targetPoint" />
          </mxGeometry>
        </mxCell>
        <mxCell id="42xPKJcxn0MM1JiC0Tld-76" value="&lt;font color=&quot;#000000&quot;&gt;rodzaj&lt;/font&gt;" style="edgeLabel;html=1;align=center;verticalAlign=middle;resizable=0;points=[];fontColor=#FF6666;" vertex="1" connectable="0" parent="42xPKJcxn0MM1JiC0Tld-73">
          <mxGeometry x="-0.9055" y="-1" relative="1" as="geometry">
            <mxPoint y="-11" as="offset" />
          </mxGeometry>
        </mxCell>
        <mxCell id="42xPKJcxn0MM1JiC0Tld-82" value="&lt;font color=&quot;#000000&quot;&gt;1..*&lt;/font&gt;" style="edgeLabel;html=1;align=center;verticalAlign=middle;resizable=0;points=[];fontColor=#FF6666;" vertex="1" connectable="0" parent="WIyWlLk6GJQsqaUBKTNV-1">
          <mxGeometry x="413.99999999999994" y="230.00000000000006" as="geometry">
            <mxPoint x="-162" y="-164" as="offset" />
          </mxGeometry>
        </mxCell>
        <mxCell id="42xPKJcxn0MM1JiC0Tld-83" value="1" style="edgeLabel;html=1;align=center;verticalAlign=middle;resizable=0;points=[];" vertex="1" connectable="0" parent="WIyWlLk6GJQsqaUBKTNV-1">
          <mxGeometry x="370" y="130" as="geometry">
            <mxPoint x="-175" y="-65" as="offset" />
          </mxGeometry>
        </mxCell>
        <mxCell id="42xPKJcxn0MM1JiC0Tld-86" value="" style="endArrow=none;html=1;fontColor=#000000;exitX=1.006;exitY=0.15;exitDx=0;exitDy=0;entryX=-0.019;entryY=0.265;entryDx=0;entryDy=0;entryPerimeter=0;exitPerimeter=0;" edge="1" parent="WIyWlLk6GJQsqaUBKTNV-1" source="42xPKJcxn0MM1JiC0Tld-2" target="42xPKJcxn0MM1JiC0Tld-9">
          <mxGeometry width="50" height="50" relative="1" as="geometry">
            <mxPoint x="-110" y="120" as="sourcePoint" />
            <mxPoint x="-60" y="70" as="targetPoint" />
          </mxGeometry>
        </mxCell>
        <mxCell id="42xPKJcxn0MM1JiC0Tld-87" value="&lt;font color=&quot;#000000&quot;&gt;klient&lt;/font&gt;" style="edgeLabel;html=1;align=center;verticalAlign=middle;resizable=0;points=[];fontColor=#00FF00;" vertex="1" connectable="0" parent="42xPKJcxn0MM1JiC0Tld-86">
          <mxGeometry x="-0.6832" relative="1" as="geometry">
            <mxPoint y="7.16" as="offset" />
          </mxGeometry>
        </mxCell>
        <mxCell id="42xPKJcxn0MM1JiC0Tld-17" value="Płatność" style="swimlane;fontStyle=1;align=center;verticalAlign=top;childLayout=stackLayout;horizontal=1;startSize=26;horizontalStack=0;resizeParent=1;resizeParentMax=0;resizeLast=0;collapsible=1;marginBottom=0;" vertex="1" parent="WIyWlLk6GJQsqaUBKTNV-1">
          <mxGeometry x="270" y="250" width="160" height="60" as="geometry" />
        </mxCell>
        <mxCell id="42xPKJcxn0MM1JiC0Tld-18" value="suma:" style="text;strokeColor=none;fillColor=none;align=left;verticalAlign=top;spacingLeft=4;spacingRight=4;overflow=hidden;rotatable=0;points=[[0,0.5],[1,0.5]];portConstraint=eastwest;fontColor=#FF6666;" vertex="1" parent="42xPKJcxn0MM1JiC0Tld-17">
          <mxGeometry y="26" width="160" height="26" as="geometry" />
        </mxCell>
        <mxCell id="42xPKJcxn0MM1JiC0Tld-19" value="" style="line;strokeWidth=1;fillColor=none;align=left;verticalAlign=middle;spacingTop=-1;spacingLeft=3;spacingRight=3;rotatable=0;labelPosition=right;points=[];portConstraint=eastwest;" vertex="1" parent="42xPKJcxn0MM1JiC0Tld-17">
          <mxGeometry y="52" width="160" height="8" as="geometry" />
        </mxCell>
        <mxCell id="42xPKJcxn0MM1JiC0Tld-8" value="Zamówienie" style="swimlane;fontStyle=1;align=center;verticalAlign=top;childLayout=stackLayout;horizontal=1;startSize=26;horizontalStack=0;resizeParent=1;resizeParentMax=0;resizeLast=0;collapsible=1;marginBottom=0;" vertex="1" parent="WIyWlLk6GJQsqaUBKTNV-1">
          <mxGeometry x="270" y="40" width="160" height="68" as="geometry" />
        </mxCell>
        <mxCell id="42xPKJcxn0MM1JiC0Tld-9" value="dataZłożenia:" style="text;strokeColor=none;fillColor=none;align=left;verticalAlign=top;spacingLeft=4;spacingRight=4;overflow=hidden;rotatable=0;points=[[0,0.5],[1,0.5]];portConstraint=eastwest;fontColor=#FF6666;" vertex="1" parent="42xPKJcxn0MM1JiC0Tld-8">
          <mxGeometry y="26" width="160" height="34" as="geometry" />
        </mxCell>
        <mxCell id="42xPKJcxn0MM1JiC0Tld-10" value="" style="line;strokeWidth=1;fillColor=none;align=left;verticalAlign=middle;spacingTop=-1;spacingLeft=3;spacingRight=3;rotatable=0;labelPosition=right;points=[];portConstraint=eastwest;" vertex="1" parent="42xPKJcxn0MM1JiC0Tld-8">
          <mxGeometry y="60" width="160" height="8" as="geometry" />
        </mxCell>
        <mxCell id="42xPKJcxn0MM1JiC0Tld-26" value="KartaPłatnicza" style="swimlane;fontStyle=1;align=center;verticalAlign=top;childLayout=stackLayout;horizontal=1;startSize=26;horizontalStack=0;resizeParent=1;resizeParentMax=0;resizeLast=0;collapsible=1;marginBottom=0;" vertex="1" parent="WIyWlLk6GJQsqaUBKTNV-1">
          <mxGeometry x="270" y="470" width="160" height="114" as="geometry" />
        </mxCell>
        <mxCell id="42xPKJcxn0MM1JiC0Tld-27" value="typ: =kredytowa&#xa;numer:&#xa;dataWażności:" style="text;strokeColor=none;fillColor=none;align=left;verticalAlign=top;spacingLeft=4;spacingRight=4;overflow=hidden;rotatable=0;points=[[0,0.5],[1,0.5]];portConstraint=eastwest;fontColor=#FF6666;" vertex="1" parent="42xPKJcxn0MM1JiC0Tld-26">
          <mxGeometry y="26" width="160" height="54" as="geometry" />
        </mxCell>
        <mxCell id="42xPKJcxn0MM1JiC0Tld-28" value="" style="line;strokeWidth=1;fillColor=none;align=left;verticalAlign=middle;spacingTop=-1;spacingLeft=3;spacingRight=3;rotatable=0;labelPosition=right;points=[];portConstraint=eastwest;" vertex="1" parent="42xPKJcxn0MM1JiC0Tld-26">
          <mxGeometry y="80" width="160" height="8" as="geometry" />
        </mxCell>
        <mxCell id="42xPKJcxn0MM1JiC0Tld-29" value="obciąż()" style="text;strokeColor=none;fillColor=none;align=left;verticalAlign=top;spacingLeft=4;spacingRight=4;overflow=hidden;rotatable=0;points=[[0,0.5],[1,0.5]];portConstraint=eastwest;fontColor=#3333FF;" vertex="1" parent="42xPKJcxn0MM1JiC0Tld-26">
          <mxGeometry y="88" width="160" height="26" as="geometry" />
        </mxCell>
      </root>
    </mxGraphModel>
  </diagram>
</mxfile>
